<?xml version="1.0" encoding="utf-8"?>
<!-- Generator: Adobe Illustrator 26.5.0, SVG Export Plug-In . SVG Version: 6.00 Build 0)  -->
<svg version="1.1" id="Layer_1" xmlns="http://www.w3.org/2000/svg" xmlns:xlink="http://www.w3.org/1999/xlink" x="0px" y="0px"
	viewBox="0 0 40.9 35.7" style="enable-background:new 0 0 40.9 35.7;" xml:space="preserve">
<style type="text/css">
	.st0{stroke:#000000;stroke-miterlimit:10;}
	.st1{fill:#3C1774;}
	.st2{fill:#FF1E00;}
	.st3{fill:none;}
	.st4{font-family:'SegoeUI-Bold';}
	.st5{font-size:5.2151px;}
	.st6{fill:none;stroke:#3C1774;stroke-width:0.3;stroke-miterlimit:10;}
	.st7{fill:#FFFFFF;}
</style>
<path class="st0" d="M-1322.5-166.5"/>
<path class="st1" d="M9,16.2L9,16.2c-0.3-0.4-0.6-0.6-1-0.8c-1.1-0.8-0.8-2-0.8-2c-1,0.1-1.6,1.2-1.7,1.9c0,0,0,0.1-0.1,0.2
	c-0.3,0.5-0.9,0.6-1.2,0.2c-0.1,0-0.1-0.1-0.2-0.2c-0.1-0.1-0.3-0.3-0.3-0.6c0,0-0.3,0.5-0.4,0.6c-0.8,1.3-0.7,2.2-0.6,3
	c0.3,1.6,1.7,3,3.6,2.9c1.8,0,3-1.1,3.3-3c0,0,0-0.1,0-0.2C9.7,17.6,9.4,16.8,9,16.2z M6.2,16.8c0.6,0,1,0.4,1,0.9
	c0,0.5-0.4,0.9-1,0.9s-1-0.4-1-0.9C5.1,17.3,5.6,16.8,6.2,16.8z M4.3,20.2L4.3,20.2c0.3-0.4,0.9-0.9,1.9-0.9c1,0,2,0.8,2,0.8l0,0
	C7.4,20.7,5.8,21.4,4.3,20.2z"/>
<path class="st2" d="M-526.4-375.3L-526.4-375.3z"/>
<path class="st2" d="M-815.5-485.2L-815.5-485.2z"/>
<line class="st3" x1="348.8" y1="-368.3" x2="339.6" y2="-384.4"/>
<path class="st2" d="M-120.1-832.5"/>
<text transform="matrix(0.9289 0 0 1 10.4116 19.7314)" class="st1 st4 st5">CUVI</text>
<text transform="matrix(0.9289 0 0 1 10.4116 19.7314)" class="st6 st4 st5">CUVI</text>
<text transform="matrix(0.9289 0 0 1 21.6914 19.7314)" class="st7 st4 st5">MAKER</text>
<text transform="matrix(0.9289 0 0 1 21.6914 19.7314)" class="st6 st4 st5">MAKER</text>
</svg>
