<?xml version="1.0" encoding="utf-8"?>
<!-- Generator: Adobe Illustrator 26.5.0, SVG Export Plug-In . SVG Version: 6.00 Build 0)  -->
<svg version="1.1" id="Layer_1" xmlns="http://www.w3.org/2000/svg" xmlns:xlink="http://www.w3.org/1999/xlink" x="0px" y="0px"
	 width="1920px" height="1080px" viewBox="0 0 1920 1080" style="enable-background:new 0 0 1920 1080;" xml:space="preserve">
<style type="text/css">
	.st0{stroke:#000000;stroke-miterlimit:10;}
	.st1{fill:#FF1E00;}
</style>
<path class="st0" d="M52.5,342.7"/>
<path class="st1" d="M1536.1,224.2c-5.8-25.6,29.9-70.7,32.9-137.4c2.6-59-10.8-100.8-44.8-147.4c-18.9-25.9-11-12-66.7-48.8
	l-39.8-12c-12.9,0-70.6,7.2-73.7,29.9c0,0,4-5,18.1-8.6c15-3.9,30.9,0.7,41.8,11.7c23,23.4,18.2,47.5,5.9,69.6
	c-22.4,40.4-72.1,32.9-108.6,11.4c-26.7-15.8-49.9-36.8-68.8-61.3c-17-22-32.5-41.1-42.4-59.5c-17.8-33-30.1-46.7-58.2-71.3
	c-23-20.2-66.5-47.9-102.6-57.8c-100.4-27.4-194.7,6.9-213-45.3c-21.9-62.7,88.6-117.5-15-79.3c-43.3,16-83.6,60.5-96.5,115.1
	c-9,37.8-9.8,79.9,12.9,102.6c21.9,21.9,40.8,35.9,67.7,64.7c36.1,38.7,33.9,67.8,12.9,111.5C775.2,59.9,632.4,87.5,571.1,42
	C462.9-38.4,532.3-143.2,596-159.2c16.5-4.1-143.4-3-242,69.7C294.7-45.7,262.4,44.7,261.4,49c-26.9,109.5,38.1,197.8,34.9,211.1
	c-19.9,80.7-38.8,148.4-29.4,245.9c32.6,337.7,311.5,593.3,671.2,593.3c359.7,0,608-254.9,631.3-593.3
	C1577.3,390.5,1562.4,339.7,1536.1,224.2z M927.2,170.9c110.7,0,200.7,84,200.7,187.2s-90,187.2-200.7,187.2
	s-200.7-84.1-200.7-187.2C726.5,254.9,816.5,170.9,927.2,170.9z M539.4,895.9c-0.4-0.3-0.7-0.6-1.1-1c-0.3-0.3-0.7-0.6-1-0.9
	c19.6-45.2,43.7-86.8,71.4-123.8c27.7-37,59.1-69.5,93.4-96.3c71.3-55.6,153.2-85.1,236.9-85.1c82.9,0,164.1,28.9,234.9,83.5
	c68.1,52.5,124.9,127.4,164.4,216.5l-0.9,0.8l-0.9,0.9c-0.1,0-0.1,0.1-0.2,0.1C1111.7,1098.1,766.3,1100.1,539.4,895.9z"/>
<path class="st1" d="M846.3,131.6L846.3,131.6z"/>
<path class="st1" d="M559.5,24L559.5,24z"/>
</svg>
