<?xml version="1.0" encoding="utf-8"?>
<!-- Generator: Adobe Illustrator 26.5.0, SVG Export Plug-In . SVG Version: 6.00 Build 0)  -->
<svg version="1.1" id="Layer_1" xmlns="http://www.w3.org/2000/svg" xmlns:xlink="http://www.w3.org/1999/xlink" x="0px" y="0px"
	viewBox="0 0 40.9 35.7" style="enable-background:new 0 0 40.9 35.7;" xml:space="preserve">
<style type="text/css">
	.st0{stroke:#000000;stroke-miterlimit:10;}
	.st1{fill:#3C1774;}
	.st2{fill:#FF1E00;}
	.st3{fill:none;}
</style>
<path class="st0" d="M-1322.5-166.5"/>
<path class="st1" d="M34.8,12.8C34.8,12.8,34.8,12.8,34.8,12.8c-1.3-1.5-3.1-2.7-4.7-3.9c-5.3-3.6-4-8.9-4-8.9
	c-4.6,0.6-7.8,5.5-8.5,8.7c0,0.2-0.2,0.5-0.3,0.7c-1.2,1.9-4.1,2.3-5.9,0.9c-0.3-0.2-0.6-0.5-0.8-0.7C10,9.1,9.3,8.2,9.4,7.1
	c-0.2,0-1.5,2.1-2,2.7c-3.6,5.7-3.2,9.6-2.9,12.9c1.1,7.1,8.4,13,17.4,12.9c8.9-0.1,14.4-5.1,16.1-13c0-0.2,0-0.4,0.1-0.7
	C38.3,18.7,37.1,15.4,34.8,12.8z M21.1,15.6c2.8,0,5,1.8,5.1,4s-2.2,4.1-5,4.1c-2.8,0-5-1.8-5.1-4C16.1,17.5,18.3,15.6,21.1,15.6z
	 M12.2,30.1C12.2,30.1,12.2,30.1,12.2,30.1c1.8-1.6,4.4-4,9.2-4c4.7,0,9.7,3.7,9.7,3.7c-0.1,0,0,0,0,0
	C27.3,32.9,19.5,35.6,12.2,30.1z"/>
<path class="st2" d="M-526.4-375.3L-526.4-375.3z"/>
<path class="st2" d="M-815.5-485.2L-815.5-485.2z"/>
<line class="st3" x1="348.8" y1="-368.3" x2="339.6" y2="-384.4"/>
<path class="st2" d="M-120.1-832.5"/>
</svg>
