<?xml version="1.0" encoding="utf-8"?>
<!-- Generator: Adobe Illustrator 26.5.0, SVG Export Plug-In . SVG Version: 6.00 Build 0)  -->
<svg version="1.1" id="Layer_1" xmlns="http://www.w3.org/2000/svg" xmlns:xlink="http://www.w3.org/1999/xlink" x="0px" y="0px"
	 viewBox="0 0 1920 1080" style="enable-background:new 0 0 1920 1080;" xml:space="preserve">
<style type="text/css">
	.st0{stroke:#000000;stroke-miterlimit:10;}
	.st1{fill:#FF1E00;}
</style>
<g>
	<path d="M900.9,615c-122.1,0-221.1,93-221.1,207.7c0,114.7,99,207.7,221.1,207.7c122.1,0,221.1-93,221.1-207.7
		C1122,707.9,1023,615,900.9,615z M900.9,1029.4c-121.5,0-220.3-92.8-220.3-206.7c0-114,98.8-206.7,220.3-206.7
		c121.5,0,220.3,92.7,220.3,206.7C1121.2,936.7,1022.4,1029.4,900.9,1029.4z"/>
	<path d="M900.9,614c-122.5,0-221.8,93.4-221.8,208.7c0,115.2,99.3,208.7,221.8,208.7c122.5,0,221.8-93.4,221.8-208.7
		C1122.8,707.4,1023.4,614,900.9,614z M900.9,1029.4c-121.5,0-220.3-92.8-220.3-206.7c0-114,98.8-206.7,220.3-206.7
		c121.5,0,220.3,92.7,220.3,206.7C1121.2,936.7,1022.4,1029.4,900.9,1029.4z"/>
</g>
<g>
	<path d="M1172.1,1168.7c-77.9-60.4-167.2-92.4-258.3-92.4c-183.4,0-352.7,129.8-442.1,338.9l881.7-5.8
		C1310,1310.4,1247.3,1227.1,1172.1,1168.7z M653.8,1171.2c78.3-61.4,168.2-93.9,260-93.9c91,0,180.1,31.9,257.8,92.2
		c74.8,58,137.1,140.6,180.4,239l-879.1,5.7C516,1314.4,578.5,1230.4,653.8,1171.2z"/>
	<path d="M913.8,1075.4c-190.8,0-356.9,137.6-443.3,340.9l884.2-5.8C1267.6,1210.4,1102.8,1075.4,913.8,1075.4z M653.8,1171.2
		c78.3-61.4,168.2-93.9,260-93.9c91,0,180.1,31.9,257.8,92.2c74.8,58,137.1,140.6,180.4,239l-879.1,5.7
		C516,1314.4,578.5,1230.4,653.8,1171.2z"/>
</g>
<path class="st0" d="M1470.3,504.3h-1101c-8.7,0-15.8,6.3-15.8,14v1021c0,7.7,7.1,16.2,15.8,16.2h1101c8.7,0,15.8-8.5,15.8-16.2
	v-1021C1486.1,510.5,1479,504.3,1470.3,504.3z M473,1414.3c43-99.9,105.4-183.9,180.8-243.1c78.3-61.4,168.2-93.9,260-93.9
	c91,0,180.1,31.9,257.8,92.2c74.8,58,137.1,140.6,180.4,239L473,1414.3z M900.9,1029.4c-121.5,0-220.3-92.8-220.3-206.7
	c0-114,98.8-206.7,220.3-206.7c121.5,0,220.3,92.7,220.3,206.7C1121.2,936.7,1022.4,1029.4,900.9,1029.4z"/>
<path class="st1" d="M277.7,511.6c0,0,141.3-164.9,642.7-174.6c449.1-3.2,642.2,182.6,643.5,190.7c1.7,10.2,162.6-88,164.8-194.1
	c-1.1-110.2-95.8-178-162.8-212.9l-158.3-82.6c18.4,31.7,175,174.1,133.2,228.9c-44.3,58.1-96.6,3.2-156.7-54.8
	c-57.5-54.8-83.6-158-128-199.9c-65.6-62-135.2-91.3-180.2-106.4c-11.5-3.9-83.6-40.1-83.6-40.1c-61.5-26.3-66.7-74.8-98.2-160.8
	c-9.6-26.2-30.9-116.3-30.2-141.1c0.7-22.6,2.6-45.1,5.6-67.4l5.4-41.1c0,0-5.3,5-13.3,14.3c-58,67.9-78.6,160.1-55.6,246.4
	c18.9,70.9,47.3,165.5,66.2,186.6C888-85.6,955.8,12.4,932.3,83.3C902.6,172.9,780.8,205.9,720.8,222
	c-58.9,15.8-188,41.9-271.6-32.2c-65.8-58.4,14.9-135.8-3.9-143.5c-2.1-0.9-257.8,106.5-299,236.9
	C87.2,415.6,277.7,511.6,277.7,511.6z"/>
<path class="st0" d="M52.5,342.7"/>
</svg>
