<?xml version="1.0" encoding="utf-8"?>
<!-- Generator: Adobe Illustrator 26.5.0, SVG Export Plug-In . SVG Version: 6.00 Build 0)  -->
<svg version="1.1" id="Layer_1" xmlns="http://www.w3.org/2000/svg" xmlns:xlink="http://www.w3.org/1999/xlink" x="0px" y="0px"
	 width="1920px" height="1080px" viewBox="0 0 1920 1080" style="enable-background:new 0 0 1920 1080;" xml:space="preserve">
<style type="text/css">
	.st0{stroke:#000000;stroke-miterlimit:10;}
	.st1{fill:#3C1774;}
	.st2{fill:#FF1E00;}
	.st3{fill:none;}
</style>
<path class="st0" d="M52.5,342.7"/>
<path class="st1" d="M1588.5,277c-1.1-1.3-2.1-2.7-3.2-4c-55.8-71.7-137.4-135.4-209.1-193.2c-237.5-183.9-175.9-448.6-175.9-448.6
	c-206.9,26-356.7,270.7-387.4,433.7c-1.8,9.7-7,22.6-15.3,36.7c-56.2,95.1-185,115-269.3,43.6c-13.2-11.2-24.9-23.3-36.4-35.5
	c-24.9-32.5-56.4-77.6-51.1-133.8c-9.2,1.1-70.4,104.4-93.4,132.6C183.9,392.3,196.1,587.4,210.1,756.4
	c47.6,358.5,374.6,656.1,781.4,654.9c401.4-1.2,655.5-246,733.2-642.4c0.9-11.3,1.8-22.2,2.6-32.7
	C1740.6,571.1,1691.2,406.9,1588.5,277z M964,408.3c125.3,0,227.1,91.9,227.1,204.9S1089.3,818,964,818s-227-92-227-204.8
	C737,500.2,838.8,408.3,964,408.3z M557.3,1129.9C557,1129.8,557.3,1129.9,557.3,1129.9c84-81.2,202.6-197.9,418.3-197.9
	c214.7,0,436.7,189,436,188.6c-4.3-2.4,1.7-1.5,0,0C1237.9,1278.4,882.1,1412,557.3,1129.9z"/>
<path class="st2" d="M846.3,131.6L846.3,131.6z"/>
<path class="st2" d="M559.5,24L559.5,24z"/>
<line class="st3" x1="1723.8" y1="140.9" x2="1714.6" y2="124.8"/>
<path class="st2" d="M1254.9-323.3"/>
</svg>
