<?xml version="1.0" encoding="utf-8"?>
<!-- Generator: Adobe Illustrator 26.5.0, SVG Export Plug-In . SVG Version: 6.00 Build 0)  -->
<svg version="1.1" id="Layer_1" xmlns="http://www.w3.org/2000/svg" xmlns:xlink="http://www.w3.org/1999/xlink" x="0px" y="0px"
	viewBox="0 0 40.9 35.7" style="enable-background:new 0 0 40.9 35.7;" xml:space="preserve">
<style type="text/css">
	.st0{stroke:#000000;stroke-miterlimit:10;}
	.st1{fill:#3C1774;}
	.st2{fill:#FF1E00;}
	.st3{fill:none;}
	.st4{fill:#3C1774;stroke:#3C1774;stroke-width:0.3;stroke-miterlimit:10;}
	.st5{font-family:'SegoeUI-Bold';}
	.st6{font-size:5.6261px;}
	.st7{fill:#FFFFFF;stroke:#3C1774;stroke-width:0.3;stroke-miterlimit:10;}
</style>
<path class="st0" d="M-1322.5-166.5"/>
<path class="st1" d="M8.2,16.5L8.2,16.5c-0.3-0.4-0.7-0.7-1.1-0.9c-1.3-0.9-0.9-2.2-0.9-2.2c-1.1,0.1-1.8,1.3-2,2.1
	c0,0,0,0.1-0.1,0.2c-0.3,0.5-1,0.6-1.4,0.2c-0.1,0-0.1-0.1-0.2-0.2c-0.1-0.1-0.3-0.3-0.3-0.6c0,0-0.4,0.5-0.5,0.7
	C0.8,17.2,0.9,18.2,1,19c0.3,1.7,2,3.2,4.1,3.1c2.1,0,3.4-1.2,3.8-3.2c0,0,0-0.1,0-0.2C9,18,8.7,17.2,8.2,16.5z M5,17.2
	c0.7,0,1.2,0.4,1.2,1c0,0.5-0.5,1-1.2,1s-1.2-0.4-1.2-1C3.8,17.7,4.3,17.2,5,17.2z M2.8,20.8L2.8,20.8c0.4-0.4,1-1,2.2-1
	c1.1,0,2.3,0.9,2.3,0.9c0,0,0,0,0,0C6.4,21.4,4.6,22.1,2.8,20.8z"/>
<path class="st2" d="M-526.4-375.3L-526.4-375.3z"/>
<path class="st2" d="M-815.5-485.2L-815.5-485.2z"/>
<line class="st3" x1="348.8" y1="-368.3" x2="339.6" y2="-384.4"/>
<path class="st2" d="M-120.1-832.5"/>
<text transform="matrix(0.9443 0 0 1 9.3877 20.2305)"><tspan x="0" y="0" class="st4 st5 st6">CUVI</tspan><tspan x="13.1" y="0" class="st7 st5 st6">MAKER</tspan></text>
</svg>
