<?xml version="1.0" encoding="utf-8"?>
<!-- Generator: Adobe Illustrator 26.5.0, SVG Export Plug-In . SVG Version: 6.00 Build 0)  -->
<svg version="1.1" id="Layer_1" xmlns="http://www.w3.org/2000/svg" xmlns:xlink="http://www.w3.org/1999/xlink" x="0px" y="0px"
	 width="1920px" height="1080px" viewBox="0 0 1920 1080" style="enable-background:new 0 0 1920 1080;" xml:space="preserve">
<style type="text/css">
	.st0{stroke:#000000;stroke-miterlimit:10;}
	.st1{fill:#3C1774;}
	.st2{fill:#FF1E00;}
	.st3{fill:none;}
</style>
<path class="st0" d="M52.5,342.7"/>
<path class="st1" d="M1816.2,451.7c-5.3-22.7-31.8-122.4-114.7-222.6c-71-85.9-99.7-107.5-181.2-170.6
	c-237.5-183.9-182.1-391.3-182.1-391.3c-206.9,26-356.7,270.7-387.4,433.7c-7.3,38.6-68.7,130.3-166,131.5
	c-120.2,1.5-138-23.3-175.9-72.9C584,127,573.4,68.1,578.7,11.9c-9.2,1.1-70.4,104.4-93.4,132.6
	C321.9,428.3,334.1,623.4,348.1,792.4c47.6,358.5,374.6,656.1,781.4,654.9c401.4-1.2,687.7-279.1,714-649.6
	C1852.6,684.5,1856.6,605.9,1816.2,451.7z M1102,444.3c125.3,0,227.1,91.9,227.1,204.9S1227.3,854,1102,854s-227-92-227-204.8
	C875,536.2,976.8,444.3,1102,444.3z M695.3,1165.9C695,1165.8,695.3,1165.9,695.3,1165.9c84-81.2,202.6-197.9,418.3-197.9
	c214.7,0,436.7,189,436,188.6c-4.3-2.4,1.7-1.5,0,0C1375.9,1314.4,1020.1,1448,695.3,1165.9z"/>
<path class="st2" d="M846.3,131.6L846.3,131.6z"/>
<path class="st2" d="M559.5,24L559.5,24z"/>
<line class="st3" x1="1723.8" y1="140.9" x2="1714.6" y2="124.8"/>
<path class="st2" d="M1254.9-323.3"/>
</svg>
